<svg xmlns="http://www.w3.org/2000/svg" width="640" height="214" viewBox="0 0 640 214"><rect width="100%" height="100%" fill="#DDDDDD"/><path fill="#999999" d="m166.51 76.27-18.23 22.32-2.13 2.63q1.79-.89 3.85-1.38 2.06-.49 4.44-.49 3.49 0 6.78 1.15t5.8 3.46q2.51 2.32 4.04 5.76 1.53 3.44 1.53 8.03 0 4.3-1.57 8.06-1.58 3.76-4.42 6.56-2.85 2.81-6.87 4.42-4.01 1.62-8.86 1.62-4.93 0-8.84-1.57-3.91-1.58-6.67-4.4-2.76-2.83-4.23-6.8-1.47-3.98-1.47-8.82 0-4.34 1.77-8.9 1.76-4.57 5.46-9.5l14.66-19.68q.77-1.02 2.23-1.74 1.47-.73 3.38-.73h9.35Zm-15.85 53.55q2.51 0 4.61-.85 2.1-.85 3.61-2.38 1.51-1.53 2.36-3.59.85-2.06.85-4.48 0-2.64-.81-4.74-.8-2.1-2.29-3.57-1.49-1.47-3.57-2.23-2.08-.77-4.59-.77t-4.55.85q-2.04.85-3.48 2.36-1.45 1.51-2.26 3.57-.8 2.06-.8 4.44 0 2.55.7 4.66.7 2.1 2.08 3.59 1.38 1.49 3.42 2.32 2.04.82 4.72.82Zm36.3-15.25h18.7V94.46q0-2.84.38-6.29l-19.08 26.4Zm27.83 0h7.74v6.07q0 .86-.55 1.47-.56.62-1.58.62h-5.61v15h-9.13v-15h-25.93q-1.06 0-1.87-.66t-1.02-1.64l-1.1-5.31 29.11-38.89h9.94v38.34Zm57.08-7.57q0 8.03-1.72 13.96-1.72 5.93-4.76 9.8-3.04 3.87-7.18 5.76-4.15 1.89-8.95 1.89-4.8 0-8.9-1.89-4.1-1.89-7.12-5.76-3.02-3.87-4.72-9.8-1.7-5.93-1.7-13.96 0-8.07 1.7-13.98t4.72-9.78q3.02-3.86 7.12-5.75 4.1-1.9 8.9-1.9 4.8 0 8.95 1.9 4.14 1.89 7.18 5.75 3.04 3.87 4.76 9.78 1.72 5.91 1.72 13.98Zm-10.84 0q0-6.67-.97-11.05-.98-4.38-2.62-6.97-1.63-2.59-3.76-3.63-2.12-1.04-4.42-1.04-2.25 0-4.36 1.04-2.1 1.04-3.71 3.63-1.62 2.59-2.58 6.97-.95 4.38-.95 11.05 0 6.67.95 11.05.96 4.38 2.58 6.97 1.61 2.59 3.71 3.64 2.11 1.04 4.36 1.04 2.3 0 4.42-1.04 2.13-1.05 3.76-3.64 1.64-2.59 2.62-6.97.97-4.38.97-11.05Zm78.33 16.66-5.57 5.48-14.4-14.4-14.54 14.49-5.57-5.48 14.54-14.58-13.86-13.86 5.53-5.52 13.85 13.85 13.77-13.77 5.61 5.53-13.81 13.81 14.45 14.45Zm51.17 4.29h15.77q1.7 0 2.7.96 1 .96 1 2.53v6.29h-42.16v-3.49q0-1.06.44-2.23.45-1.17 1.43-2.1l18.65-18.7q2.34-2.38 4.19-4.55 1.85-2.16 3.08-4.29 1.23-2.12 1.89-4.31.66-2.19.66-4.62 0-2.21-.64-3.88-.63-1.68-1.8-2.83-1.17-1.15-2.81-1.72-1.63-.58-3.67-.58-1.87 0-3.47.54-1.59.53-2.82 1.48-1.24.96-2.09 2.23-.85 1.28-1.27 2.81-.72 1.95-1.87 2.59-1.15.64-3.32.3l-5.52-.98q.64-4.42 2.46-7.75 1.83-3.34 4.57-5.57 2.74-2.23 6.29-3.36t7.63-1.13q4.25 0 7.78 1.26 3.53 1.25 6.03 3.55 2.51 2.29 3.91 5.52 1.41 3.23 1.41 7.18 0 3.4-1 6.29t-2.68 5.53q-1.68 2.63-3.93 5.1-2.25 2.46-4.72 5.01l-13.85 14.16q1.99-.6 3.97-.92 1.98-.32 3.76-.32Zm56.31 1.92h11.05v7.86h-34v-7.86h12.46V94.04q0-2.13.12-4.38l-8.84 7.4q-.76.59-1.51.74-.74.15-1.4.02-.66-.13-1.17-.44-.51-.32-.76-.7l-3.32-4.55 18.75-15.94h8.62v53.68Zm27.93-15.3h18.7V94.46q0-2.84.38-6.29l-19.08 26.4Zm27.83 0h7.74v6.07q0 .86-.55 1.47-.56.62-1.58.62h-5.61v15h-9.13v-15h-25.93q-1.06 0-1.87-.66t-1.02-1.64l-1.1-5.31 29.11-38.89h9.94v38.34Z"/></svg>